<svg xmlns="http://www.w3.org/2000/svg" id="b" viewBox="0 0 100 100">
  <defs>
    <clipPath id="d">
      <path d="M0 0h100v100H0z" style="fill:none"/>
    </clipPath>
    <style>
      .f{fill:#fff8f0}
    </style>
  </defs>
  <g id="c" style="clip-path:url(#d);fill:none">
    <path d="M-12-14h126v128H-12z" style="fill:#f8efe8"/>
    <rect width="12" height="42" x="3" y="4" class="f" rx="4" ry="4"/>
    <rect width="12" height="42" x="19" y="21" class="f" rx="4" ry="4"/>
    <rect width="12" height="42" x="36" y="38" class="f" rx="4" ry="4"/>
    <rect width="12" height="42" x="53" y="54" class="f" rx="4" ry="4"/>
    <rect width="12" height="42" x="70" y="-29" class="f" rx="4" ry="4"/>
    <rect width="12" height="42" x="70" y="71" class="f" rx="4" ry="4"/>
    <rect width="12" height="42" x="86" y="-13" class="f" rx="4" ry="4"/>
    <rect width="12" height="42" x="86" y="88" class="f" rx="4" ry="4"/>
    <rect width="42" height="13" x="-31" y="52" class="f" rx="4" ry="4"/>
    <rect width="42" height="14" x="-14" y="68" class="f" rx="4" ry="4"/>
    <rect width="42" height="13" x="3" y="85" class="f" rx="4" ry="4"/>
    <rect width="42" height="14" x="19" y="1" class="f" rx="4" ry="4"/>
    <rect width="42" height="14" x="36" y="18" class="f" rx="4" ry="4"/>
    <rect width="42" height="14" x="53" y="35" class="f" rx="4" ry="4"/>
    <rect width="42" height="13" x="70" y="52" class="f" rx="4" ry="4"/>
    <rect width="42" height="14" x="86" y="68" class="f" rx="4" ry="4"/>
  </g>
</svg>
