<?xml version="1.0" encoding="UTF-8"?><svg id="b" xmlns="http://www.w3.org/2000/svg" xmlns:xlink="http://www.w3.org/1999/xlink" viewBox="0 0 100 100"><defs><style>.e{fill:#f8efe8;}.f{fill:#fff8f0;}.g{clip-path:url(#d);}.g,.h{fill:none;}</style><clipPath id="d"><rect class="h" width="100" height="100"/></clipPath></defs><g id="c"><g class="g"><rect class="e" x="-12.22" y="-14.44" width="125.56" height="127.78"/><rect class="f" x="52.96" y="36.2" width="41.56" height="13.63" rx="4.06" ry="4.06"/><rect class="f" x="36.2" y="19.44" width="41.56" height="13.63" rx="4.06" ry="4.06"/><rect class="f" x="69.72" y="72.52" width="12.06" height="41.56" rx="4.06" ry="4.06"/><path class="f" d="m110.9,64.01l2.15-5.51c1.04-2.66-.92-5.53-3.78-5.53h-35.49c-2.24,0-4.06,1.82-4.06,4.06v5.51c0,2.24,1.82,4.06,4.06,4.06h33.34c1.67,0,3.17-1.03,3.78-2.58Z"/><rect class="f" x="36.2" y="39" width="12.06" height="41.56" rx="4.06" ry="4.06"/><rect class="f" x="52.96" y="55.76" width="12.06" height="41.56" rx="4.06" ry="4.06"/><path class="f" d="m-11.78,57.88l1.2,5.51c.41,1.87,2.06,3.2,3.96,3.2H6.66c2.24,0,4.06-1.82,4.06-4.06v-5.51c0-2.24-1.82-4.06-4.06-4.06H-7.82c-2.59,0-4.51,2.39-3.96,4.92Z"/><rect class="f" x="-14.08" y="69.72" width="41.56" height="13.63" rx="4.06" ry="4.06"/><rect class="f" x="2.68" y="86.48" width="41.56" height="13.63" rx="4.06" ry="4.06"/><rect class="f" x="19.44" y="22.23" width="12.06" height="41.56" rx="4.06" ry="4.06"/><rect class="f" x="19.44" y="2.68" width="41.56" height="13.63" rx="4.06" ry="4.06"/><rect class="f" x="2.68" y="5.47" width="12.06" height="41.56" rx="4.06" ry="4.06"/><rect class="f" x="86.48" y="-11.29" width="12.06" height="41.56" rx="4.06" ry="4.06"/><path class="f" d="m38.5,7.6l1.2,5.51c.41,1.87,2.06,3.2,3.96,3.2h13.29c2.24,0,4.06-1.82,4.06-4.06v-5.51c0-2.24-1.82-4.06-4.06-4.06h-14.48c-2.59,0-4.51,2.39-3.96,4.92Z"/><rect class="f" x="36.2" y="19.44" width="41.56" height="13.63" rx="4.06" ry="4.06"/><rect class="f" x="52.96" y="36.2" width="41.56" height="13.63" rx="4.06" ry="4.06"/><rect class="f" x="69.72" y="-28.05" width="12.06" height="41.56" rx="4.06" ry="4.06"/><rect class="f" x="86.48" y="69.72" width="41.56" height="13.63" rx="4.06" ry="4.06"/><rect class="f" x="86.48" y="89.28" width="12.06" height="41.56" rx="4.06" ry="4.06"/><rect class="f" x="69.72" y="72.52" width="12.06" height="41.56" rx="4.06" ry="4.06"/><rect class="f" x="69.72" y="52.96" width="41.56" height="13.63" rx="4.06" ry="4.06"/><rect class="f" x="52.96" y="55.76" width="12.06" height="41.56" rx="4.06" ry="4.06"/><rect class="f" x="2.68" y="86.48" width="41.56" height="13.63" rx="4.06" ry="4.06"/><rect class="f" x="-14.08" y="69.72" width="41.56" height="13.63" rx="4.06" ry="4.06"/><rect class="f" x="-30.84" y="52.96" width="41.56" height="13.63" rx="4.06" ry="4.06"/><rect class="f" x="19.44" y="22.23" width="12.06" height="41.56" rx="4.06" ry="4.06"/><path class="f" d="m60.62,13.73l2.15-5.51c1.04-2.66-.92-5.53-3.78-5.53H23.5c-2.24,0-4.06,1.82-4.06,4.06v5.51c0,2.24,1.82,4.06,4.06,4.06h33.34c1.67,0,3.17-1.03,3.78-2.58Z"/><rect class="f" x="2.68" y="5.47" width="12.06" height="41.56" rx="4.06" ry="4.06"/></g></g></svg>