<svg xmlns="http://www.w3.org/2000/svg" viewBox="0 0 367 90.91">
    <path d="M5 43V5h357v38" style="fill:#ccc;stroke:#000;stroke-linecap:round;stroke-linejoin:round;stroke-width:10px"/>
    <path d="M134.24 50.21c-22.04-14.99 17.19-46.72 48.92-23.36-31.95-1.98-26.89 38.35-48.92 23.36m62.15 26.89s7.27-22.26-13.22-50.25h0s26.67 39.01 43.63 23.36c16.97-15.65-14.99-36.8-43.63-23.36-30.63 9.04-25.56 59.06-25.56 59.06M25 5v30M62 5v31m39-31v30M211 5v28m63-28v36m19-36v28m42-28v32" style="stroke:#000;stroke-linecap:round;stroke-linejoin:round;stroke-width:10px;fill:none"/>
</svg>
